<svg width="120" height="120" viewBox="0 0 120 120" fill="none" xmlns="http://www.w3.org/2000/svg">
<rect width="120" height="120" rx="22.2857" fill="#21252B"/>
<path d="M20.5144 78.9415L20.2246 79.5456L20.7573 79.9523C22.8943 81.583 25.7477 82.8738 29.2772 83.8512C32.8149 84.8309 36.4088 85.321 40.0569 85.321C42.8416 85.321 45.3794 85.0573 47.6617 84.5211H48.1382H57.9782H58.5178L58.7332 84.0264L62.8377 74.6011H84.8745L88.9009 84.0212L89.1146 84.5211H89.6583H99.6582H100.935L100.408 83.3579L79.6884 37.5979L79.4694 37.114H78.9382H68.9383H68.4079L68.1885 37.5968L57.2119 61.7455C55.6661 60.2386 53.8777 59.1343 51.8517 58.4412C49.6206 57.6256 46.7328 56.8175 43.1995 56.0146L43.1853 56.0115C39.6361 55.2698 37.0688 54.539 35.4417 53.8296C34.7264 53.4811 34.2376 53.0589 33.9244 52.5841C33.6116 52.1099 33.4405 51.5324 33.4405 50.8176C33.4405 49.5323 34.0141 48.4984 35.3023 47.6703L35.3193 47.659C36.6114 46.7822 38.6806 46.2811 41.6569 46.2811C46.4823 46.2811 50.6151 47.4208 54.0895 49.669L54.9022 50.1948L55.2911 49.3085L58.7311 41.4685L59.0157 40.8196L58.4167 40.4413C56.2979 39.1031 53.7825 38.1125 50.886 37.456C47.9957 36.7477 45.0254 36.394 41.9769 36.394C37.9507 36.394 34.4026 36.9923 31.3511 38.2129C28.3037 39.4319 25.9043 41.1686 24.1981 43.4435L24.1902 43.4542C22.5341 45.7385 21.7134 48.3906 21.7134 51.3776C21.7134 54.6139 22.5529 57.2803 24.3194 59.2825C26.0066 61.1946 28.0135 62.5821 30.334 63.431L30.34 63.4331C32.6238 64.2487 35.5664 65.0573 39.157 65.8612L39.1777 65.8656C42.6812 66.5556 45.1831 67.2864 46.7382 68.0389L46.7474 68.0432C47.4993 68.3957 48.0106 68.8228 48.3362 69.3011C48.6584 69.7743 48.8334 70.3481 48.8334 71.0575C48.8334 72.2776 48.2711 73.2884 46.9749 74.1227C45.7365 74.9009 43.6381 75.354 40.5369 75.354C37.7397 75.354 34.9946 74.9398 32.2991 74.1105C29.5982 73.2794 27.3411 72.1712 25.5111 70.7987L24.7083 70.1967L24.2744 71.1015L20.5144 78.9415ZM66.9119 65.274L73.8982 49.131L80.8845 65.274H66.9119Z" fill="white"/>
</svg>
