<?xml version="1.0" standalone="no"?>
<!DOCTYPE svg PUBLIC "-//W3C//DTD SVG 20010904//EN"
 "http://www.w3.org/TR/2001/REC-SVG-20010904/DTD/svg10.dtd">
<svg version="1.0" xmlns="http://www.w3.org/2000/svg"
 width="700.000000pt" height="700.000000pt" viewBox="0 0 700.000000 700.000000"
 preserveAspectRatio="xMidYMid meet">
<metadata>
Created by potrace 1.14, written by Peter Selinger 2001-2017
</metadata>
<g transform="translate(0.000000,700.000000) scale(0.100000,-0.100000)"
fill="#000000" stroke="none">
<path d="M1080 6980 c-151 -29 -206 -46 -345 -111 -128 -59 -245 -142 -355
-251 -150 -148 -268 -347 -324 -544 -26 -90 -31 -114 -44 -194 -9 -58 -9
-4689 0 -4755 32 -226 113 -424 248 -603 194 -258 459 -426 791 -498 80 -18
182 -19 2449 -19 2239 0 2369 1 2448 18 303 65 546 208 743 437 137 159 231
349 281 568 l23 97 2 2350 c2 2529 5 2369 -47 2582 -53 219 -228 485 -425 649
-128 106 -354 222 -481 248 -10 3 -41 10 -69 16 -27 6 -63 14 -80 18 -16 3
-1085 7 -2375 8 -2216 2 -2350 1 -2440 -16z"/>
</g>
</svg>
